<svg width="34" height="34" viewBox="0 0 34 34" fill="none" xmlns="http://www.w3.org/2000/svg">
<circle cx="16.9999" cy="16.9999" r="16.6667" fill="#1F1F1F"/>
<path d="M17 8.80179C19.6701 8.80179 19.9864 8.81199 21.0409 8.8601C22.0158 8.90456 22.5453 9.06747 22.8977 9.20442C23.3645 9.38582 23.6976 9.60252 24.0475 9.95243C24.3975 10.3024 24.6142 10.6355 24.7956 11.1023C24.9325 11.4546 25.0954 11.9841 25.1399 12.9591C25.188 14.0136 25.1982 14.3299 25.1982 16.9999C25.1982 19.6701 25.188 19.9864 25.1399 21.0408C25.0954 22.0158 24.9325 22.5453 24.7956 22.8977C24.6142 23.3644 24.3975 23.6976 24.0476 24.0475C23.6976 24.3974 23.3645 24.6141 22.8977 24.7955C22.5453 24.9325 22.0158 25.0954 21.0409 25.1398C19.9866 25.1879 19.6703 25.1981 17 25.1981C14.3297 25.1981 14.0135 25.1879 12.9591 25.1398C11.9842 25.0954 11.4547 24.9325 11.1023 24.7955C10.6355 24.6141 10.3024 24.3974 9.95248 24.0475C9.60257 23.6976 9.38583 23.3644 9.20443 22.8977C9.06748 22.5453 8.90457 22.0158 8.86011 21.0408C8.812 19.9864 8.8018 19.6701 8.8018 16.9999C8.8018 14.3299 8.812 14.0136 8.86011 12.9591C8.90457 11.9841 9.06748 11.4546 9.20443 11.1023C9.38583 10.6355 9.60253 10.3024 9.95248 9.95247C10.3024 9.60252 10.6355 9.38582 11.1023 9.20442C11.4547 9.06747 11.9842 8.90456 12.9591 8.8601C14.0136 8.81199 14.3299 8.80179 17 8.80179ZM17 7C14.2842 7 13.9436 7.01151 12.877 7.06018C11.8126 7.10872 11.0857 7.27779 10.4496 7.52497C9.79203 7.78052 9.23436 8.12245 8.67839 8.67838C8.12246 9.23435 7.78052 9.79202 7.52501 10.4496C7.27779 11.0857 7.10872 11.8126 7.06018 12.877C7.01151 13.9436 7 14.2841 7 16.9999C7 19.7158 7.01151 20.0563 7.06018 21.1229C7.10872 22.1873 7.27779 22.9143 7.52501 23.5503C7.78052 24.2079 8.12246 24.7656 8.67839 25.3216C9.23436 25.8775 9.79203 26.2194 10.4496 26.4749C11.0857 26.7221 11.8126 26.8912 12.877 26.9398C13.9436 26.9884 14.2842 26.9999 17 26.9999C19.7158 26.9999 20.0564 26.9884 21.123 26.9398C22.1874 26.8912 22.9143 26.7221 23.5504 26.4749C24.208 26.2194 24.7656 25.8775 25.3216 25.3216C25.8775 24.7656 26.2195 24.2079 26.475 23.5503C26.7222 22.9143 26.8913 22.1873 26.9398 21.1229C26.9885 20.0563 27 19.7158 27 16.9999C27 14.2841 26.9885 13.9436 26.9398 12.877C26.8913 11.8126 26.7222 11.0857 26.475 10.4496C26.2195 9.79202 25.8775 9.23435 25.3216 8.67838C24.7656 8.12245 24.208 7.78052 23.5504 7.52497C22.9143 7.27779 22.1874 7.10872 21.123 7.06018C20.0564 7.01151 19.7158 7 17 7Z" fill="white"/>
<path d="M17.0048 11.8695C14.1687 11.8695 11.8696 14.1686 11.8696 17.0046C11.8696 19.8407 14.1687 22.1397 17.0048 22.1397C19.8408 22.1397 22.1399 19.8407 22.1399 17.0046C22.1399 14.1686 19.8408 11.8695 17.0048 11.8695ZM17.0048 20.3379C15.1638 20.3379 13.6714 18.8456 13.6714 17.0046C13.6714 15.1637 15.1638 13.6713 17.0048 13.6713C18.8457 13.6713 20.3381 15.1637 20.3381 17.0046C20.3381 18.8456 18.8457 20.3379 17.0048 20.3379Z" fill="white"/>
<path d="M23.5423 11.6634C23.5423 12.3261 23.0051 12.8634 22.3423 12.8634C21.6796 12.8634 21.1423 12.3261 21.1423 11.6634C21.1423 11.0007 21.6796 10.4634 22.3423 10.4634C23.0051 10.4634 23.5423 11.0007 23.5423 11.6634Z" fill="white"/>
</svg>
