<svg width="34" height="34" viewBox="0 0 34 34" fill="none" xmlns="http://www.w3.org/2000/svg">
<circle cx="16.9999" cy="16.9999" r="16.6667" fill="#1F1F1F"/>
<path fill-rule="evenodd" clip-rule="evenodd" d="M27 10.5906C26.2647 10.9173 25.4734 11.1372 24.6435 11.2366C25.4908 10.7286 26.1414 9.92466 26.4474 8.96673C25.6554 9.43736 24.7761 9.77801 23.8422 9.96266C23.0936 9.16538 22.0263 8.66675 20.8471 8.66675C18.5812 8.66675 16.744 10.504 16.744 12.7698C16.744 13.0911 16.7807 13.4044 16.8507 13.7051C13.4402 13.5344 10.4171 11.9005 8.39324 9.41803C8.03993 10.024 7.83794 10.7286 7.83794 11.4806C7.83794 12.9038 8.56123 14.1597 9.66316 14.8957C8.98987 14.8743 8.35791 14.6897 7.80394 14.3824V14.4337C7.80394 16.4222 9.21918 18.0801 11.0951 18.4581C10.7511 18.5514 10.3884 18.6021 10.0145 18.6021C9.74982 18.6021 9.4925 18.5761 9.24185 18.5281C9.76381 20.158 11.2797 21.3446 13.0749 21.3779C11.671 22.4778 9.90181 23.1344 7.97927 23.1344C7.64729 23.1344 7.32065 23.1151 7 23.0764C8.81588 24.2404 10.9724 24.9203 13.2896 24.9203C20.8364 24.9203 24.9635 18.6681 24.9635 13.2464C24.9635 13.0685 24.9601 12.8911 24.9515 12.7158C25.7541 12.1359 26.45 11.4132 27 10.5906Z" fill="white"/>
</svg>
